<svg xmlns="http://www.w3.org/2000/svg" xmlns:xlink="http://www.w3.org/1999/xlink" width="40" height="40" viewBox="0 0 40 40"><defs><clipPath id="b"><rect width="40" height="40"/></clipPath></defs><g id="a" clip-path="url(#b)"><g transform="translate(0 -1)"><rect width="40" height="40" rx="7" transform="translate(0 1)" fill="#ff9696"/><path d="M-1011.536,294.437s2.847,1,2.847,2.135-2.847,2.423-2.847,2.423l2.228,2.308s1.1-2.654,2.29-2.654,2.476,2.654,2.476,2.654l2.352-2.308s-2.971-1.284-2.971-2.423,2.971-2.135,2.971-2.135l-2.661-2.135s-1.052,2.827-2.166,2.827-2.29-2.827-2.29-2.827Z" transform="translate(1033.316 -277.553)" fill="#fff"/><text transform="translate(14.874 24)" fill="#fff" font-size="22" font-family="SegoeUI-Bold, Segoe UI" font-weight="700"><tspan x="-6.327" y="0">3</tspan></text><text transform="translate(20 34)" fill="#fff" font-size="7" font-family="SegoeUI-Bold, Segoe UI" font-weight="700"><tspan x="-11.037" y="0">WORD</tspan></text></g></g></svg>